# xmcd
#
# Track frame offsets:
#	150
#	16412
#	29812
#	41955
#	61397
#	79410
#	96367
#	106937
#	118382
#	133247
#
# Disc length: 1939
#
# Revision: 1
# Processed by: cddbd v1.5.1PL0 Copyright (c) Steve Scherf et al.
# Submitted via: VisiTrax 2.9.5.180 - For more info visit www.synapsa.com
# Normalized: r0:DSETVAR1
#
DISCID=9707910a
DTITLE=Various Artist - CDX 129 February 1996
DYEAR=1996
DGENRE=
TTITLE0=Tim McGraw - All I want is a life
TTITLE1=Shenandoah - All over but the shoutin'
TTITLE2=Joe Diffie - C-O-U-N-T-R-Y
TTITLE3=Marcus Hummon - God's country
TTITLE4=Terri Clark - If I were you
TTITLE5=Bryan White - I'm not supposed to love you anymore
TTITLE6=Ty Herndon - In your face
TTITLE7=Doug Supernaw - She never looks back
TTITLE8=Boz Boswell - Ricochet waltz
TTITLE9=Wendt Brothers - Letting go
EXTD=
EXTT0=
EXTT1=
EXTT2=
EXTT3=
EXTT4=
EXTT5=
EXTT6=
EXTT7=
EXTT8=
EXTT9=
PLAYORDER=
